{
    "asset" : {
        "generator" : "Khronos glTF Blender I/O v1.1.46",
        "version" : "2.0"
    },
    "scene" : 0,
    "scenes" : [
        {
            "name" : "Scene",
            "nodes" : [
                5,
                6,
                7,
                8,
                9
            ]
        }
    ],
    "nodes" : [
        {
            "mesh" : 0,
            "name" : "body_helicopter",
            "scale" : [
                0.46798354387283325,
                0.456222265958786,
                0.1616775393486023
            ],
            "translation" : [
                0,
                -0.056781768798828125,
                0.41057682037353516
            ]
        },
        {
            "mesh" : 1,
            "name" : "baling-baling_2",
            "rotation" : [
                -0.04261232912540436,
                -0.36857154965400696,
                -0.5117756128311157,
                0.7748708724975586
            ],
            "scale" : [
                0.4933110773563385,
                1.9459936618804932,
                0.4999759793281555
            ],
            "translation" : [
                0,
                0,
                -3.0517578125e-05
            ]
        },
        {
            "children" : [
                1
            ],
            "name" : "Empty",
            "rotation" : [
                -0.20680725574493408,
                0,
                0,
                0.9783816933631897
            ],
            "scale" : [
                0.07240033894777298,
                0.7293667793273926,
                0.06680087745189667
            ],
            "translation" : [
                0.16506268084049225,
                0.3549995422363281,
                -1.528106689453125
            ]
        },
        {
            "mesh" : 2,
            "name" : "baling baling_1",
            "scale" : [
                0.013859420083463192,
                0.4497978687286377,
                0.13976694643497467
            ]
        },
        {
            "children" : [
                3
            ],
            "name" : "Empty_baling_1",
            "rotation" : [
                0,
                -0.20887711644172668,
                0,
                0.9779418706893921
            ],
            "scale" : [
                4.517751693725586,
                0.14176321029663086,
                0.2108510285615921
            ],
            "translation" : [
                0.004922268912196159,
                1.4522628784179688,
                0.29335880279541016
            ]
        },
        {
            "children" : [
                0,
                2,
                4
            ],
            "name" : "Empty_heli",
            "scale" : [
                2.136827230453491,
                2.1919140815734863,
                6.185150623321533
            ],
            "translation" : [
                0,
                41.85370635986328,
                -78.13355255126953
            ]
        },
        {
            "name" : "Point.001",
            "rotation" : [
                -0.11783472448587418,
                -0.8750784993171692,
                -0.2671453058719635,
                0.3859870731830597
            ],
            "translation" : [
                10.86357307434082,
                14.28455924987793,
                10.823033332824707
            ]
        },
        {
            "name" : "Point",
            "translation" : [
                -12.187906265258789,
                9.789265632629395,
                1.2291539907455444
            ]
        },
        {
            "mesh" : 3,
            "name" : "tanah",
            "scale" : [
                18.838167190551758,
                11.32385540008545,
                17.131797790527344
            ],
            "translation" : [
                0,
                0.3941366672515869,
                0
            ]
        },
        {
            "name" : "Camera",
            "rotation" : [
                0.5248913764953613,
                0.18837480247020721,
                -0.1203915998339653,
                0.8212854862213135
            ],
            "translation" : [
                9.216877937316895,
                13.130890846252441,
                16.97180938720703
            ]
        }
    ],
    "animations" : [
        {
            "channels" : [
                {
                    "sampler" : 0,
                    "target" : {
                        "node" : 5,
                        "path" : "translation"
                    }
                },
                {
                    "sampler" : 1,
                    "target" : {
                        "node" : 5,
                        "path" : "rotation"
                    }
                }
            ],
            "name" : "Empty_heliAction",
            "samplers" : [
                {
                    "input" : 16,
                    "interpolation" : "LINEAR",
                    "output" : 17
                },
                {
                    "input" : 16,
                    "interpolation" : "LINEAR",
                    "output" : 18
                }
            ]
        },
        {
            "channels" : [
                {
                    "sampler" : 0,
                    "target" : {
                        "node" : 2,
                        "path" : "rotation"
                    }
                }
            ],
            "name" : "EmptyAction.001",
            "samplers" : [
                {
                    "input" : 19,
                    "interpolation" : "LINEAR",
                    "output" : 20
                }
            ]
        },
        {
            "channels" : [
                {
                    "sampler" : 0,
                    "target" : {
                        "node" : 1,
                        "path" : "rotation"
                    }
                }
            ],
            "name" : "baling-baling_2Action",
            "samplers" : [
                {
                    "input" : 21,
                    "interpolation" : "STEP",
                    "output" : 22
                }
            ]
        },
        {
            "channels" : [
                {
                    "sampler" : 0,
                    "target" : {
                        "node" : 4,
                        "path" : "rotation"
                    }
                }
            ],
            "name" : "Empty_baling_1Action",
            "samplers" : [
                {
                    "input" : 19,
                    "interpolation" : "LINEAR",
                    "output" : 23
                }
            ]
        }
    ],
    "materials" : [
        {
            "doubleSided" : true,
            "name" : "col_master",
            "pbrMetallicRoughness" : {}
        },
        {
            "doubleSided" : true,
            "name" : "Material.002",
            "pbrMetallicRoughness" : {}
        },
        {
            "doubleSided" : true,
            "name" : "col_1",
            "pbrMetallicRoughness" : {}
        },
        {
            "doubleSided" : true,
            "name" : "col_2",
            "pbrMetallicRoughness" : {}
        },
        {
            "doubleSided" : true,
            "name" : "col_tanah",
            "pbrMetallicRoughness" : {}
        }
    ],
    "meshes" : [
        {
            "name" : "Cube",
            "primitives" : [
                {
                    "attributes" : {
                        "POSITION" : 0
                    },
                    "indices" : 1,
                    "material" : 0
                },
                {
                    "attributes" : {
                        "POSITION" : 2
                    },
                    "indices" : 3,
                    "material" : 1
                },
                {
                    "attributes" : {
                        "POSITION" : 4
                    },
                    "indices" : 5,
                    "material" : 2
                }
            ]
        },
        {
            "name" : "Plane.001",
            "primitives" : [
                {
                    "attributes" : {
                        "POSITION" : 6
                    },
                    "indices" : 7,
                    "material" : 2
                },
                {
                    "attributes" : {
                        "POSITION" : 8
                    },
                    "indices" : 9,
                    "material" : 3
                }
            ]
        },
        {
            "name" : "Cube.001",
            "primitives" : [
                {
                    "attributes" : {
                        "POSITION" : 10
                    },
                    "indices" : 11,
                    "material" : 2
                },
                {
                    "attributes" : {
                        "POSITION" : 12
                    },
                    "indices" : 13,
                    "material" : 3
                }
            ]
        },
        {
            "name" : "Plane.003",
            "primitives" : [
                {
                    "attributes" : {
                        "POSITION" : 14
                    },
                    "indices" : 15,
                    "material" : 4
                }
            ]
        }
    ],
    "accessors" : [
        {
            "bufferView" : 0,
            "componentType" : 5126,
            "count" : 1998,
            "max" : [
                1.9189921617507935,
                3.3655104637145996,
                4.823047161102295
            ],
            "min" : [
                -1.9189921617507935,
                -1.427427887916565,
                -13.233443260192871
            ],
            "type" : "VEC3"
        },
        {
            "bufferView" : 1,
            "componentType" : 5123,
            "count" : 10797,
            "type" : "SCALAR"
        },
        {
            "bufferView" : 2,
            "componentType" : 5126,
            "count" : 90,
            "max" : [
                1.2552247047424316,
                1.1326866149902344,
                4.723053455352783
            ],
            "min" : [
                -1.2552247047424316,
                -1.0346378087997437,
                -0.8170359134674072
            ],
            "type" : "VEC3"
        },
        {
            "bufferView" : 3,
            "componentType" : 5123,
            "count" : 222,
            "type" : "SCALAR"
        },
        {
            "bufferView" : 4,
            "componentType" : 5126,
            "count" : 919,
            "max" : [
                2.0003602504730225,
                3.3655104637145996,
                2.4527649879455566
            ],
            "min" : [
                -2.0003602504730225,
                -2.1318283081054688,
                -12.164647102355957
            ],
            "type" : "VEC3"
        },
        {
            "bufferView" : 5,
            "componentType" : 5123,
            "count" : 3636,
            "type" : "SCALAR"
        },
        {
            "bufferView" : 6,
            "componentType" : 5126,
            "count" : 1152,
            "max" : [
                4.379947662353516,
                0.30628857016563416,
                4.957151889801025
            ],
            "min" : [
                -4.597292900085449,
                -0.08121711015701294,
                -4.8412275314331055
            ],
            "type" : "VEC3"
        },
        {
            "bufferView" : 7,
            "componentType" : 5123,
            "count" : 1716,
            "type" : "SCALAR"
        },
        {
            "bufferView" : 8,
            "componentType" : 5126,
            "count" : 348,
            "max" : [
                3.1869139671325684,
                0.30628857016563416,
                3.8803656101226807
            ],
            "min" : [
                -3.398164749145508,
                -0.08121711015701294,
                -3.769308090209961
            ],
            "type" : "VEC3"
        },
        {
            "bufferView" : 9,
            "componentType" : 5123,
            "count" : 528,
            "type" : "SCALAR"
        },
        {
            "bufferView" : 10,
            "componentType" : 5126,
            "count" : 3126,
            "max" : [
                66.75316619873047,
                1.5548723936080933,
                1.9834452867507935
            ],
            "min" : [
                -66.76534271240234,
                -1.4732327461242676,
                -1.638165831565857
            ],
            "type" : "VEC3"
        },
        {
            "bufferView" : 11,
            "componentType" : 5123,
            "count" : 5352,
            "type" : "SCALAR"
        },
        {
            "bufferView" : 12,
            "componentType" : 5126,
            "count" : 4722,
            "max" : [
                70.57054138183594,
                1.2804025411605835,
                1.7841883897781372
            ],
            "min" : [
                -70.57862091064453,
                -1.1856279373168945,
                -2.557620048522949
            ],
            "type" : "VEC3"
        },
        {
            "bufferView" : 13,
            "componentType" : 5123,
            "count" : 7296,
            "type" : "SCALAR"
        },
        {
            "bufferView" : 14,
            "componentType" : 5126,
            "count" : 4,
            "max" : [
                1,
                0,
                1
            ],
            "min" : [
                -1,
                0,
                -1
            ],
            "type" : "VEC3"
        },
        {
            "bufferView" : 15,
            "componentType" : 5123,
            "count" : 6,
            "type" : "SCALAR"
        },
        {
            "bufferView" : 16,
            "componentType" : 5126,
            "count" : 160,
            "max" : [
                6.666666666666667
            ],
            "min" : [
                0.041666666666666664
            ],
            "type" : "SCALAR"
        },
        {
            "bufferView" : 17,
            "componentType" : 5126,
            "count" : 160,
            "type" : "VEC3"
        },
        {
            "bufferView" : 18,
            "componentType" : 5126,
            "count" : 160,
            "type" : "VEC4"
        },
        {
            "bufferView" : 19,
            "componentType" : 5126,
            "count" : 21,
            "max" : [
                0.875
            ],
            "min" : [
                0.041666666666666664
            ],
            "type" : "SCALAR"
        },
        {
            "bufferView" : 20,
            "componentType" : 5126,
            "count" : 21,
            "type" : "VEC4"
        },
        {
            "bufferView" : 21,
            "componentType" : 5126,
            "count" : 1,
            "max" : [
                0.041666666666666664
            ],
            "min" : [
                0.041666666666666664
            ],
            "type" : "SCALAR"
        },
        {
            "bufferView" : 22,
            "componentType" : 5126,
            "count" : 1,
            "type" : "VEC4"
        },
        {
            "bufferView" : 23,
            "componentType" : 5126,
            "count" : 21,
            "type" : "VEC4"
        }
    ],
    "bufferViews" : [
        {
            "buffer" : 0,
            "byteLength" : 23976,
            "byteOffset" : 0
        },
        {
            "buffer" : 0,
            "byteLength" : 21594,
            "byteOffset" : 23976
        },
        {
            "buffer" : 0,
            "byteLength" : 1080,
            "byteOffset" : 45572
        },
        {
            "buffer" : 0,
            "byteLength" : 444,
            "byteOffset" : 46652
        },
        {
            "buffer" : 0,
            "byteLength" : 11028,
            "byteOffset" : 47096
        },
        {
            "buffer" : 0,
            "byteLength" : 7272,
            "byteOffset" : 58124
        },
        {
            "buffer" : 0,
            "byteLength" : 13824,
            "byteOffset" : 65396
        },
        {
            "buffer" : 0,
            "byteLength" : 3432,
            "byteOffset" : 79220
        },
        {
            "buffer" : 0,
            "byteLength" : 4176,
            "byteOffset" : 82652
        },
        {
            "buffer" : 0,
            "byteLength" : 1056,
            "byteOffset" : 86828
        },
        {
            "buffer" : 0,
            "byteLength" : 37512,
            "byteOffset" : 87884
        },
        {
            "buffer" : 0,
            "byteLength" : 10704,
            "byteOffset" : 125396
        },
        {
            "buffer" : 0,
            "byteLength" : 56664,
            "byteOffset" : 136100
        },
        {
            "buffer" : 0,
            "byteLength" : 14592,
            "byteOffset" : 192764
        },
        {
            "buffer" : 0,
            "byteLength" : 48,
            "byteOffset" : 207356
        },
        {
            "buffer" : 0,
            "byteLength" : 12,
            "byteOffset" : 207404
        },
        {
            "buffer" : 0,
            "byteLength" : 640,
            "byteOffset" : 207416
        },
        {
            "buffer" : 0,
            "byteLength" : 1920,
            "byteOffset" : 208056
        },
        {
            "buffer" : 0,
            "byteLength" : 2560,
            "byteOffset" : 209976
        },
        {
            "buffer" : 0,
            "byteLength" : 84,
            "byteOffset" : 212536
        },
        {
            "buffer" : 0,
            "byteLength" : 336,
            "byteOffset" : 212620
        },
        {
            "buffer" : 0,
            "byteLength" : 4,
            "byteOffset" : 212956
        },
        {
            "buffer" : 0,
            "byteLength" : 16,
            "byteOffset" : 212960
        },
        {
            "buffer" : 0,
            "byteLength" : 336,
            "byteOffset" : 212976
        }
    ],
    "buffers" : [
        {
            "byteLength" : 213312,
            "uri" : "data:application/octet-stream;base64,"
        }
    ]
}
